<svg width="60" height="60" viewBox="0 0 60 60" fill="none" xmlns="http://www.w3.org/2000/svg">
<g id="icon-pet-food">
<g id="Vector">
<path d="M52.8978 25.4978L47.1428 9.7473V1.42852C47.1428 0.639609 46.5031 0 45.7143 0H14.2858C13.4969 0 12.8573 0.639727 12.8573 1.42852V9.74719L7.10208 25.4978C6.41921 27.3636 6.07033 29.335 6.07141 31.3219V55.0765C6.07141 57.7913 8.28005 60 10.9949 60H49.0049C51.7198 60 53.9284 57.7913 53.9284 55.0765V31.3219C53.9284 29.329 53.5817 27.3694 52.8978 25.4978ZM15.7142 2.85715H44.2857V8.57145H15.7142V2.85715ZM51.0714 50.1321H30.9077C30.1188 50.1321 29.4791 50.7718 29.4791 51.5606C29.4791 52.3495 30.1189 52.9891 30.9077 52.9891H51.0714V55.0763C51.0714 56.2157 50.1445 57.1427 49.0049 57.1427H10.9949C9.85551 57.1427 8.92856 56.2158 8.92856 55.0763V31.3219C8.92768 29.6695 9.21781 28.03 9.78567 26.4783L15.2847 11.4286H44.7152L50.2142 26.4783C50.782 28.03 51.0722 29.6695 51.0713 31.3219L51.0714 50.1321Z" fill="#F1CDB3"/>
<path d="M35.6169 33.805C35.1505 30.8772 32.6077 28.632 29.5504 28.632C26.4931 28.632 23.9504 30.8772 23.484 33.805C21.067 34.7989 19.4857 37.2756 19.6898 39.9659C19.9175 42.9637 22.3505 45.392 25.3489 45.6148C26.5071 45.7011 27.6571 45.4628 28.675 44.9259C29.2314 44.6328 29.8696 44.6326 30.4256 44.926C31.3084 45.3908 32.2913 45.6331 33.289 45.632C33.4428 45.632 33.5974 45.6263 33.7516 45.6149C36.7502 45.3923 39.1831 42.9638 39.4109 39.966C39.6152 37.2756 38.0339 34.7989 35.6169 33.805ZM36.562 39.7495C36.4405 41.35 35.1414 42.6466 33.5402 42.7655C32.9176 42.8126 32.3013 42.6851 31.7586 42.3986C31.078 42.0394 30.3201 41.8517 29.5505 41.8517C28.781 41.8517 28.0231 42.0394 27.3425 42.3986C26.7998 42.6849 26.1848 42.8123 25.5608 42.7655C23.9596 42.6467 22.6605 41.3501 22.5391 39.7495C22.4143 38.1062 23.5296 36.6124 25.133 36.2746C25.4587 36.206 25.7502 36.0259 25.9572 35.7653C26.1643 35.5047 26.2738 35.18 26.2671 34.8473L26.2647 34.775C26.2647 32.9632 27.7386 31.4893 29.5504 31.4893C31.3623 31.4893 32.8361 32.9632 32.8361 34.7698L32.8339 34.8473C32.827 35.1801 32.9365 35.5048 33.1436 35.7654C33.3506 36.026 33.6422 36.2061 33.9679 36.2746C35.5716 36.6124 36.6868 38.1062 36.562 39.7495Z" fill="#F1CDB3"/>
<path d="M29.5505 25.7751C32.1107 25.7751 34.1934 23.6924 34.1934 21.1322C34.1934 18.572 32.1107 16.4893 29.5505 16.4893C26.9903 16.4893 24.9077 18.5721 24.9077 21.1322C24.9077 23.6923 26.9906 25.7751 29.5505 25.7751ZM29.5505 19.3465C30.5353 19.3465 31.3362 20.1475 31.3362 21.1322C31.3362 22.1169 30.5353 22.9179 29.5505 22.9179C28.5658 22.9179 27.7648 22.1169 27.7648 21.1322C27.7648 20.1475 28.5659 19.3465 29.5505 19.3465Z" fill="#F1CDB3"/>
<path d="M24.1934 26.6561C24.1934 24.0959 22.1106 22.0132 19.5506 22.0132C16.9905 22.0132 14.9077 24.096 14.9077 26.6561C14.9077 29.2162 16.9904 31.2989 19.5506 31.2989C22.1108 31.2989 24.1934 29.2162 24.1934 26.6561ZM19.5506 28.4418C18.5658 28.4418 17.7649 27.6408 17.7649 26.6561C17.7649 25.6714 18.5658 24.8704 19.5506 24.8704C20.5353 24.8704 21.3363 25.6714 21.3363 26.6561C21.3363 27.6408 20.5352 28.4418 19.5506 28.4418Z" fill="#F1CDB3"/>
<path d="M39.5505 22.0131C36.9903 22.0131 34.9076 24.0959 34.9076 26.656C34.9076 29.216 36.9905 31.2988 39.5505 31.2988C42.1107 31.2988 44.1933 29.2162 44.1933 26.656C44.1933 24.0958 42.1107 22.0131 39.5505 22.0131ZM39.5505 28.4418C38.5658 28.4418 37.7648 27.6408 37.7648 26.6561C37.7648 25.6714 38.5659 24.8704 39.5505 24.8704C40.5352 24.8704 41.3362 25.6714 41.3362 26.6561C41.3362 27.6408 40.5352 28.4418 39.5505 28.4418Z" fill="#F1CDB3"/>
<path d="M24.6933 50.1322H24.3465C23.5576 50.1322 22.9179 50.7719 22.9179 51.5607C22.9179 52.3496 23.5577 52.9892 24.3465 52.9892H24.6933C25.4822 52.9892 26.1218 52.3495 26.1218 51.5607C26.122 50.7719 25.4824 50.1322 24.6933 50.1322Z" fill="#F1CDB3"/>
</g>
</g>
</svg>
